<svg style="position: absolute; width: 0; height: 0;" width="0" height="0" version="1.1" xmlns="http://www.w3.org/2000/svg" xmlns:xlink="http://www.w3.org/1999/xlink"><defs><symbol id=".null" viewBox="0 -212 1024 1024"><path d=""></path></symbol><symbol id=".null" viewBox="0 -212 1024 1024"><path d=""></path></symbol><symbol id="space" viewBox="0 -212 1024 1024"><path d=""></path></symbol><symbol id="exclam" viewBox="0 -212 1024 1024"><path d="M241 89 l-200 0 l0 413 l200 0 l0 -413 ZM241 680 l0 -145 l-200 0 l0 145 l200 0 Z"></path></symbol><symbol id="quotedbl" viewBox="0 -212 1024 1024"><path d="M41 716 l146 0 l0 -213 l-146 0 l0 213 ZM231 503 l0 213 l147 0 l0 -213 l-147 0 Z"></path></symbol><symbol id="numbersign" viewBox="0 -212 1024 1024"><path d="M443 205 l-133 3 l15 -113 l-117 -11 l-14 129 l-132 4 l-7 83 l126 -4 l-14 138 l-121 4 l-5 82 l117 -3 l-19 119 l117 8 l18 -132 l132 -2 l-17 134 l114 9 l19 -147 l119 -3 l5 -83 l-115 2 l18 -137 l108 -4 l8 -84 l-105 1 l14 -103 l-116 -9 l-15 119 ZM431 288 l-18 139 l-131 2 l18 -137 l131 -4 Z"></path></symbol><symbol id="dollar" viewBox="0 -212 1024 1024"><path d="M41 121 q52 0 84.5 5 q32.5 5 48.5 14 l243 205 l0 25 l-218 0 l0 29 l218 0 l0 173 q0 44 -128 44 l0 22 l350 0 l0 -23 q-145 1 -145 -40 l0 -176 l214 0 l0 -29 l-214 0 l0 -16 l251 -214 q29 -24 124 -19 l0 -22 l-259 0 l0 22 q106 0 77 19 l-210 182 l-215 -182 q-14 -9 17.5 -14 q31.5 -5 108.5 -5 l0 -22 l-347 0 l0 22 Z"></path></symbol><symbol id="percent" viewBox="0 -212 1024 1024"><path d="M806 663 l0 -305 l-346 0 l236 -302 l-55 0 l-250 317 l0 -300 l-350 0 l0 305 l346 0 l-233 303 l54 0 l248 -315 l0 297 l350 0 ZM189 149 l53 0 l0 157 l-53 0 l0 -157 ZM605 430 l53 0 l0 160 l-53 0 l0 -160 Z"></path></symbol><symbol id="ampersand" viewBox="0 -212 1024 1024"><path d="M544 74 l-471 0 l0 224 l92 68 l-124 74 l0 224 l441 0 l42 -34 l45 34 l184 0 l50 -78 l-90 0 l-77 -57 l138 -127 l-223 0 l-41 34 l-83 -65 l117 -69 l0 -228 ZM262 250 l0 -100 l95 0 l0 101 l-54 30 l-41 -31 ZM398 538 l-54 48 l-96 0 l0 -102 l43 -25 l107 79 Z"></path></symbol><symbol id="quotesingle" viewBox="0 -212 1024 1024"><path d="M185 441 l-144 0 l0 215 l144 0 l0 -215 Z"></path></symbol><symbol id="parenleft" viewBox="0 -212 1024 1024"><path d="M422 24 l-241 0 q-55 74 -88 151 q-17 42 -29 82.5 q-12 40.5 -16 79.5 q-7 92 28 197 q17 54 43.5 99.5 q26.5 45.5 63.5 80.5 l246 0 q-62 -65 -100 -130 q-21 -34 -35 -69 q-14 -35 -21 -69 q-20 -95 9 -186 q19 -62 56 -124 q15 -28 37.5 -55.5 q22.5 -27.5 46.5 -56.5 l0 0 Z"></path></symbol><symbol id="parenright" viewBox="0 -212 1024 1024"><path d="M420 337 q-9 -80 -45 -162 q-18 -39 -39 -77 q-21 -38 -49 -74 l-239 0 q49 59 83 112 q20 31 32.5 62.5 q12.5 31.5 22.5 61.5 q30 93 11 186 q-7 34 -21.5 68.5 q-14.5 34.5 -36.5 69.5 q-17 31 -42 64 q-25 33 -56 66 l244 0 q37 -35 64 -80.5 q27 -45.5 45 -99.5 q37 -103 26 -197 Z"></path></symbol><symbol id="asterisk" viewBox="0 -212 1024 1024"><path d="M733 257.71 q0 -29 -12 -38 q-10 -13 -31 -19 q-16 -4 -32.5 -2 q-16.5 2 -31.5 14 l-219 143 l0 7 q2 3 5.5 3.5 q3.5 0.5 4.5 0.5 l284 -75 q12 -6 21 -14.5 q9 -8.5 11 -19.5 ZM721 455.71 q-5 -4 -10 -7 q-5 -3 -10 -3 l-282 -74 q-10 0 -15 2 q-5 6 5 11 l226 143 l21 8 q18 1 33.5 -2 q15.5 -3 29.5 -14 q22 -19 12 -47 l-10 -17 ZM444 102.71 q-20 -20 -40 -20 q-45 -9 -68 18 q-10 9 -10 29 q0 4 0 8.5 q0 4.5 2 9.5 l55 205 q3 1 5.5 2 q2.5 1 6.5 -1 q5 0 9 -10 l0 -7 q0 -2 0 -4.5 q0 -2.5 3 -2.5 l46 -193 q5 -18 -9 -34 ZM379 379.71 q0 -6 -7 -8 l-7 0 l-4 0 l-289 81 q-25 14 -25 36 q-6 31 34 47 q34 12 61 -2 l230 -145 l7 -9 ZM367 366.71 q3 0 4 -1 q1 -1 3 -3 q2 -2 -2 -7 l-225 -145 q-15 -12 -45 -10 q-41 3 -53 29 q-5 12 -4 22 q1 10 5 18 q5 5 11 10.5 q6 5.5 15 11.5 q5 2 13 4.5 q8 2.5 20 4.5 l258 66 ZM392 381.71 q-4 0 -6.5 1 q-2.5 1 -4.5 6 l-46 191 q-5 8 -6 15.5 q-1 7.5 -1 12.5 q0 29 29 43 q32 14 69 2 q33 -17 33 -44 l-58 -219 q5 -7 -9 -8 Z"></path></symbol><symbol id="plus" viewBox="0 -212 1024 1024"><path d="M41 310 l0 102 l271 0 l0 231 l139 0 l0 -231 l274 0 l0 -102 l-274 0 l0 -215 l-139 0 l0 215 l-271 0 Z"></path></symbol><symbol id="comma" viewBox="0 -212 1024 1024"><path d="M246 305 l0 -146 l-205 0 l0 154 l127 0 l-100 117 l70 0 l108 -125 Z"></path></symbol><symbol id="hyphen" viewBox="0 -212 1024 1024"><path d="M731 384 l0 -95 l-690 0 l0 95 l690 0 Z"></path></symbol><symbol id="period" viewBox="0 -212 1024 1024"><path d="M267 287 q0 -9 2 -20 q2 -11 7 -23 l-235 0 q4 11 6.5 20.5 q2.5 9.5 2.5 22.5 l0 78 q0 14 -2.5 24 q-2.5 10 -6.5 19 l235 0 q-5 -12 -7 -23 q-2 -11 -2 -20 l0 -78 Z"></path></symbol><symbol id="slash" viewBox="0 -212 1024 1024"><path d="M594 -12 l-36 -12 l-517 769 l36 17 l517 -774 Z"></path></symbol><symbol id="zero" viewBox="0 -212 1024 1024"><path d="M641 47 l-600 0 l0 587 l600 0 l0 -587 ZM244 124 l192 0 l0 431 l-192 0 l0 -431 Z"></path></symbol><symbol id="one" viewBox="0 -212 1024 1024"><path d="M632 47 l-207 0 l0 589 l207 0 l0 -589 Z"></path></symbol><symbol id="two" viewBox="0 -212 1024 1024"><path d="M48 47 l0 77 l367 0 l0 59 l-374 390 l0 63 l573 0 l45 -77 l-359 0 l314 -336 l0 -176 l-566 0 Z"></path></symbol><symbol id="three" viewBox="0 -212 1024 1024"><path d="M77 300 l0 78 l357 0 l0 183 l-393 0 l0 75 l602 0 l0 -243 l-108 -60 l97 -38 l0 -248 l-584 0 l0 76 l386 0 l0 177 l-357 0 Z"></path></symbol><symbol id="four" viewBox="0 -212 1024 1024"><path d="M696 455 l-113 0 l0 -408 l-170 0 l-372 408 l0 75 l350 0 l0 104 l192 0 l0 -104 l59 0 l54 -75 ZM391 200 l0 255 l-232 0 l232 -255 Z"></path></symbol><symbol id="five" viewBox="0 -212 1024 1024"><path d="M41 47 l0 303 l374 0 l0 209 l-372 0 l0 77 l574 0 l0 -363 l-378 0 l0 -149 l364 0 l41 -77 l-603 0 Z"></path></symbol><symbol id="six" viewBox="0 -212 1024 1024"><path d="M248 266 l0 -140 l377 0 l43 -79 l-627 0 l0 589 l603 0 l0 -370 l-206 0 l0 293 l-190 0 l0 -214 l131 0 l59 -79 l-190 0 Z"></path></symbol><symbol id="seven" viewBox="0 -212 1024 1024"><path d="M41 47 l0 75 l391 0 l-253 512 l219 0 l246 -496 l0 -91 l-603 0 Z"></path></symbol><symbol id="eight" viewBox="0 -212 1024 1024"><path d="M43 272 l78 52 l-80 48 l0 264 l585 0 l0 -262 l-64 -50 l55 -52 l0 -226 l-574 0 l0 226 ZM248 289 l0 -165 l169 0 l-2 165 l-167 0 ZM238 367 l190 -2 l0 193 l-190 0 l0 -191 Z"></path></symbol><symbol id="nine" viewBox="0 -212 1024 1024"><path d="M254 348 l0 -226 l129 0 l62 -76 l-402 0 l0 379 l402 2 l0 129 l-404 0 l0 78 l607 0 l0 -588 l-203 0 l0 302 l-191 0 Z"></path></symbol><symbol id="colon" viewBox="0 -212 1024 1024"><path d="M41 252 l212 0 l0 -154 l-212 0 l0 154 ZM253 401 l-212 0 l0 153 l212 0 l0 -153 Z"></path></symbol><symbol id="semicolon" viewBox="0 -212 1024 1024"><path d="M259 294 l-218 0 l0 157 l142 0 l-118 127 l77 0 l117 -127 l0 -157 ZM41 218 l218 0 l0 -156 l-218 0 l0 156 Z"></path></symbol><symbol id="less" viewBox="0 -212 1024 1024"><path d="M829 216 l0 -107 l-788 257 l788 264 l0 -102 l-470 -160 l470 -152 Z"></path></symbol><symbol id="equal" viewBox="0 -212 1024 1024"><path d="M41 220 l0 99 l691 0 l0 -99 l-691 0 ZM41 416 l0 101 l691 0 l0 -101 l-691 0 Z"></path></symbol><symbol id="greater" viewBox="0 -212 1024 1024"><path d="M41 111 l0 104 l471 158 l-471 148 l0 107 l793 -255 l-793 -262 Z"></path></symbol><symbol id="question" viewBox="0 -212 1024 1024"><path d="M560 32 l-519 0 l0 78 l313 0 l0 141 l-201 52 l0 160 l208 0 l0 -69 l199 -55 l0 -307 ZM153 493 l0 127 l208 0 l0 -127 l-208 0 Z"></path></symbol><symbol id="at" viewBox="0 -212 1024 1024"><path d="M424 158 l-187 0 l0 342 l188 0 l45 -61 l0 61 l350 0 l0 -468 l-779 0 l0 588 l762 0 l53 -69 l-657 0 l0 -446 l464 0 l0 323 l-36 0 l0 -270 l-157 0 l0 58 l-46 -58 ZM400 428 l0 -198 l70 0 l0 198 l-70 0 Z"></path></symbol><symbol id="A" viewBox="0 -212 1024 1024"><path d="M451 125 l32 0 l111 289 l83 221 l217 0 l-239 -589 l-376 0 l-238 589 l219 0 l54 -140 l220 0 l60 -81 l-246 0 l103 -289 Z"></path></symbol><symbol id="B" viewBox="0 -212 1024 1024"><path d="M749 270 l0 -224 l-205 0 l0 249 l-296 0 l0 -170 l220 0 l76 -79 l-503 0 l0 589 l722 0 l0 -248 l-122 -61 l108 -56 ZM248 556 l0 -183 l305 0 l0 183 l-305 0 Z"></path></symbol><symbol id="C" viewBox="0 -212 1024 1024"><path d="M696 123 l56 -77 l-711 0 l0 589 l691 0 l45 -77 l-530 0 l0 -435 l449 0 Z"></path></symbol><symbol id="D" viewBox="0 -212 1024 1024"><path d="M760 123 l-74 -77 l-131 0 l0 510 l-309 0 l0 -429 l236 0 l73 -81 l-514 0 l0 589 l638 0 l81 -83 l0 -429 Z"></path></symbol><symbol id="E" viewBox="0 -212 1024 1024"><path d="M248 558 l0 -185 l379 0 l45 -78 l-424 0 l0 -172 l395 0 l46 -77 l-648 0 l0 589 l605 0 l45 -77 l-443 0 Z"></path></symbol><symbol id="F" viewBox="0 -212 1024 1024"><path d="M622 125 l44 -79 l-625 0 l0 589 l207 0 l0 -260 l355 0 l48 -80 l-403 0 l0 -170 l374 0 Z"></path></symbol><symbol id="G" viewBox="0 -212 1024 1024"><path d="M251 558 l0 -435 l467 0 l45 -77 l-722 0 l0 589 l453 0 l61 -63 l0 63 l205 0 l0 -362 l-358 0 l0 78 l153 0 l0 207 l-304 0 Z"></path></symbol><symbol id="H" viewBox="0 -212 1024 1024"><path d="M760 46 l-204 0 l0 251 l0 338 l204 0 l0 -589 ZM492 375 l64 -78 l-307 0 l0 -251 l-208 0 l0 589 l208 0 l0 -260 l243 0 Z"></path></symbol><symbol id="I" viewBox="0 -212 1024 1024"><path d="M241 46 l-200 0 l0 589 l200 0 l0 -589 Z"></path></symbol><symbol id="J" viewBox="0 -212 1024 1024"><path d="M62 635 l448 0 l0 -589 l-208 0 l0 512 l-261 0 l21 77 Z"></path></symbol><symbol id="K" viewBox="0 -212 1024 1024"><path d="M248 375 l277 260 l252 0 l-324 -302 l317 -287 l-255 0 l-267 251 l0 -251 l-207 0 l0 589 l207 0 l0 -260 Z"></path></symbol><symbol id="L" viewBox="0 -212 1024 1024"><path d="M584 635 l43 -77 l-379 0 l0 -512 l-207 0 l0 589 l543 0 Z"></path></symbol><symbol id="M" viewBox="0 -212 1024 1024"><path d="M912 46 l-245 0 l-187 404 l-185 -404 l-254 0 l0 589 l189 0 l0 -374 l169 374 l158 0 l171 -379 l0 379 l184 0 l0 -589 Z"></path></symbol><symbol id="N" viewBox="0 -212 1024 1024"><path d="M760 635 l0 -589 l-205 0 l0 417 l-283 -417 l-231 0 l0 589 l207 0 l0 -410 l283 410 l229 0 Z"></path></symbol><symbol id="O" viewBox="0 -212 1024 1024"><path d="M479 125 l72 -79 l-510 0 l0 589 l718 0 l0 -589 l-208 0 l0 510 l-302 0 l0 -431 l230 0 Z"></path></symbol><symbol id="P" viewBox="0 -212 1024 1024"><path d="M684 405 l0 -359 l-208 0 l0 282 l-230 0 l0 -203 l171 0 l59 -79 l-435 0 l0 589 l205 0 l0 -230 l438 0 Z"></path></symbol><symbol id="Q" viewBox="0 -212 1024 1024"><path d="M248 45 l231 0 l74 -77 l-512 0 l0 589 l302 0 l110 78 l264 0 l-105 -78 l148 0 l0 -589 l-207 0 l0 512 l-305 0 l0 -435 Z"></path></symbol><symbol id="R" viewBox="0 -212 1024 1024"><path d="M708 635 l-136 -245 l110 0 l0 -344 l-207 0 l0 267 l-226 0 l0 -190 l161 0 l65 -77 l-434 0 l0 589 l208 0 l0 -245 l99 0 l140 245 l220 0 Z"></path></symbol><symbol id="S" viewBox="0 -212 1024 1024"><path d="M724 121 l39 -75 l-720 0 l0 327 l415 0 l71 -76 l-278 0 l0 -176 l473 0 ZM738 297 l-209 0 l0 261 l-488 0 l0 77 l697 0 l0 -338 Z"></path></symbol><symbol id="T" viewBox="0 -212 1024 1024"><path d="M508 125 l235 0 l45 -79 l-747 0 l0 79 l262 0 l0 510 l205 0 l0 -510 Z"></path></symbol><symbol id="U" viewBox="0 -212 1024 1024"><path d="M244 47 l-203 0 l0 589 l447 0 l69 -79 l-313 0 l0 -510 ZM557 557 l0 79 l199 0 l0 -589 l-199 0 l0 510 Z"></path></symbol><symbol id="V" viewBox="0 -212 1024 1024"><path d="M546 636 l279 -589 l-205 0 l-190 429 l-177 -429 l-212 0 l267 589 l238 0 Z"></path></symbol><symbol id="W" viewBox="0 -212 1024 1024"><path d="M41 47 l159 589 l210 0 l107 -282 l114 282 l210 0 l147 -589 l-195 0 l-87 372 l-133 -372 l-95 0 l-147 379 l-92 -379 l-198 0 Z"></path></symbol><symbol id="X" viewBox="0 -212 1024 1024"><path d="M587 47 l-146 165 l-150 -165 l-241 0 l272 289 l-281 300 l243 0 l155 -169 l159 169 l243 0 l-281 -302 l266 -287 l-239 0 Z"></path></symbol><symbol id="Y" viewBox="0 -212 1024 1024"><path d="M340 636 l205 0 l0 -191 l293 -398 l-231 0 l-165 246 l-169 -246 l-232 0 l299 396 l0 193 Z"></path></symbol><symbol id="Z" viewBox="0 -212 1024 1024"><path d="M727 145 l0 -98 l-674 0 l0 79 l429 0 l-441 419 l0 91 l675 0 l54 -77 l-476 0 l433 -414 Z"></path></symbol><symbol id="bracketleft" viewBox="0 -212 1024 1024"><path d="M375 22 l-334 0 l0 694 l334 0 l0 -78 l-134 0 l0 -535 l134 0 l0 -81 Z"></path></symbol><symbol id="backslash" viewBox="0 -212 1024 1024"><path d="M77 -24 l-36 12 l519 774 l36 -17 l-519 -769 Z"></path></symbol><symbol id="bracketright" viewBox="0 -212 1024 1024"><path d="M41 638 l0 78 l336 0 l0 -694 l-336 0 l0 81 l133 0 l0 535 l-133 0 Z"></path></symbol><symbol id="asciicircum" viewBox="0 -212 1024 1024"><path d="M222 537 l-181 0 l145 119 l186 0 l147 -119 l-185 0 l-58 48 l-54 -48 Z"></path></symbol><symbol id="underscore" viewBox="0 -212 1024 1024"><path d="M42 -20 l-1 38 l1024 0 l0 -38 l-1023 0 Z"></path></symbol><symbol id="grave" viewBox="0 -212 1024 1024"><path d="M98 368.57 q-11 -3 -20 -2.5 q-9 0.5 -20 5.5 q-17 8 -17 19 q0 16 24 50 q11 20 24 47 q13 27 31 65 q34 70 48 73 q14 0 -1 -63 q-8 -31 -16.5 -62 q-8.5 -31 -16.5 -65 q-15 -61 -36 -67 Z"></path></symbol><symbol id="a" viewBox="0 -212 1024 1024"><path d="M668 392 l-60 0 l0 -345 l-188 0 l0 345 l-186 0 l0 -274 l139 0 l47 -71 l-379 0 l0 414 l580 0 l47 -69 Z"></path></symbol><symbol id="b" viewBox="0 -212 1024 1024"><path d="M431 222 l-194 0 l0 -175 l-196 0 l0 589 l586 0 l0 -414 l-196 0 l0 340 l-194 0 l0 -264 l129 0 l65 -76 Z"></path></symbol><symbol id="c" viewBox="0 -212 1024 1024"><path d="M579 461 l41 -74 l-382 0 l0 -266 l348 0 l36 -74 l-581 0 l0 414 l538 0 Z"></path></symbol><symbol id="d" viewBox="0 -212 1024 1024"><path d="M429 47 l0 175 l0 340 l-190 0 l0 -266 l134 0 l56 -74 l-388 0 l0 414 l586 0 l0 -589 l-198 0 Z"></path></symbol><symbol id="e" viewBox="0 -212 1024 1024"><path d="M620 47 l-198 0 l0 180 l-183 0 l0 -104 l121 0 l62 -76 l-381 0 l0 414 l560 0 l42 -72 l-404 0 l0 -86 l381 0 l0 -256 Z"></path></symbol><symbol id="f" viewBox="0 -212 1024 1024"><path d="M498 119 l41 -72 l-372 0 l0 175 l-126 0 l0 74 l126 0 l0 340 l195 0 l0 -340 l139 0 l38 -74 l-177 0 l0 -103 l136 0 Z"></path></symbol><symbol id="g" viewBox="0 -212 1024 1024"><path d="M44 -110 l0 414 l392 0 l0 87 l-395 0 l31 70 l562 0 l0 -571 l-198 0 l0 340 l-194 0 l0 -266 l140 0 l54 -74 l-392 0 Z"></path></symbol><symbol id="h" viewBox="0 -212 1024 1024"><path d="M623 222 l-199 0 l0 414 l199 0 l0 -414 ZM360 296 l64 -74 l-185 0 l0 -175 l-198 0 l0 589 l198 0 l0 -340 l121 0 Z"></path></symbol><symbol id="i" viewBox="0 -212 1024 1024"><path d="M41 174 l198 0 l0 -127 l-198 0 l0 127 ZM239 222 l-198 0 l0 414 l198 0 l0 -414 Z"></path></symbol><symbol id="j" viewBox="0 -212 1024 1024"><path d="M435 17 l0 -127 l-196 0 l0 127 l196 0 ZM239 65 l0 501 l-198 0 l21 70 l373 0 l0 -571 l-196 0 Z"></path></symbol><symbol id="k" viewBox="0 -212 1024 1024"><path d="M676 222 l-245 0 l-192 143 l0 -318 l-198 0 l0 589 l198 0 l0 -221 l212 221 l221 0 l-222 -239 l226 -175 Z"></path></symbol><symbol id="l" viewBox="0 -212 1024 1024"><path d="M245 47 l-204 0 l0 589 l204 0 l0 -589 Z"></path></symbol><symbol id="m" viewBox="0 -212 1024 1024"><path d="M229 123 l119 0 l0 339 l191 0 l0 -339 l59 0 l61 -74 l-618 0 l0 413 l188 0 l0 -339 ZM848 49 l-189 0 l0 413 l189 0 l0 -413 Z"></path></symbol><symbol id="n" viewBox="0 -212 1024 1024"><path d="M627 49 l-196 0 l0 413 l196 0 l0 -413 ZM362 123 l69 -74 l-390 0 l0 413 l198 0 l0 -339 l123 0 Z"></path></symbol><symbol id="o" viewBox="0 -212 1024 1024"><path d="M241 121 l124 0 l60 -74 l-384 0 l0 413 l582 0 l0 -413 l-198 0 l0 341 l-184 0 l0 -267 Z"></path></symbol><symbol id="p" viewBox="0 -212 1024 1024"><path d="M234 -37 l126 0 l63 -74 l-382 0 l0 571 l193 0 l0 -158 l386 0 l0 -413 l-197 0 l0 338 l-189 0 l0 -264 Z"></path></symbol><symbol id="q" viewBox="0 -212 1024 1024"><path d="M242 -38 l133 0 l52 -74 l-386 0 l0 413 l386 0 l0 159 l198 0 l0 -572 l-198 0 l0 341 l-185 0 l0 -267 Z"></path></symbol><symbol id="r" viewBox="0 -212 1024 1024"><path d="M241 121 l217 0 l43 -74 l-460 0 l0 413 l200 0 l0 -339 Z"></path></symbol><symbol id="s" viewBox="0 -212 1024 1024"><path d="M41 47 l0 243 l318 0 l65 -76 l-183 0 l0 -93 l355 0 l43 -74 l-598 0 ZM620 214 l-196 0 l0 174 l-381 0 l0 72 l577 0 l0 -246 Z"></path></symbol><symbol id="t" viewBox="0 -212 1024 1024"><path d="M41 182 l0 74 l105 0 l0 339 l326 0 l43 -72 l-171 0 l0 -267 l130 0 l50 -74 l-180 0 l0 -135 l-198 0 l0 135 l-105 0 Z"></path></symbol><symbol id="u" viewBox="0 -212 1024 1024"><path d="M236 47 l-195 0 l0 413 l338 0 l47 -75 l-190 0 l0 -338 ZM624 47 l-198 0 l0 338 l0 75 l198 0 l0 -413 Z"></path></symbol><symbol id="v" viewBox="0 -212 1024 1024"><path d="M375 281 l-122 -234 l-212 0 l231 413 l205 0 l231 -413 l-214 0 l-119 234 Z"></path></symbol><symbol id="w" viewBox="0 -212 1024 1024"><path d="M328 279 l-86 -232 l-201 0 l165 413 l200 0 l111 -213 l103 213 l200 0 l167 -413 l-208 0 l-80 230 l-112 -230 l-136 0 l-123 232 Z"></path></symbol><symbol id="x" viewBox="0 -212 1024 1024"><path d="M465 47 l-81 83 l-85 -83 l-234 0 l198 196 l-222 217 l235 0 l104 -104 l106 104 l237 0 l-222 -217 l195 -196 l-231 0 Z"></path></symbol><symbol id="y" viewBox="0 -212 1024 1024"><path d="M249 -112 l-208 0 l228 410 l-102 162 l206 0 l337 -572 l-205 0 l-132 224 l-124 -224 Z"></path></symbol><symbol id="z" viewBox="0 -212 1024 1024"><path d="M41 47 l0 76 l336 0 l-336 260 l0 77 l555 0 l52 -74 l-354 0 l323 -256 l0 -83 l-576 0 Z"></path></symbol></defs></svg>